<svg xmlns="http://www.w3.org/2000/svg" xmlns:xlink="http://www.w3.org/1999/xlink" xmlns:inkscape="http://www.inkscape.org/namespaces/inkscape" version="1.1" width="206.0747" height="201.8401" viewBox="0 0 206.0747 201.8401">
<g>
<path d="M.203 178.164C.203 174.906 2.844 172.266 6.102 172.266 8.305 172.266 10.219 173.473 11.234 175.25L10.18 175.844C9.395 174.43 7.863 173.492 6.102 173.492 3.516 173.492 1.426 175.559 1.426 178.164 1.426 180.77 3.516 182.836 6.102 182.836 7.863 182.836 9.395 181.898 10.18 180.48L11.234 181.074C10.219 182.855 8.305 184.062 6.102 184.062 2.844 184.062 .203 181.418 .203 178.164" fill="#ffffff"/>
<path d="M14.586 173.605V177.57H18.988V178.758H14.586V182.719H19.641V183.91H13.359V172.418H19.641V173.605ZM14.586 173.605" fill="#ffffff"/>
<path d="M31.648 172.418V183.91H30.5L23.41 174.465V183.91H22.188V172.418H23.336L30.441 181.859V172.418ZM31.648 172.418" fill="#ffffff"/>
<path d="M40.801 173.645H37.625V183.91H36.395V173.645H33.219V172.418H40.801ZM40.801 173.645" fill="#ffffff"/>
<path d="M46.414 177.551C47.582 177.551 48.461 176.766 48.461 175.598 48.461 174.449 47.562 173.645 46.414 173.645H43.598V177.551ZM50.414 183.906H49.02L45.762 178.719H43.598V183.906H42.371V172.418H46.488C48.254 172.418 49.688 173.836 49.688 175.637 49.688 177.188 48.539 178.449 47.027 178.66ZM50.414 183.906" fill="#ffffff"/>
<path d="M62.098 178.164C62.098 175.559 60.027 173.492 57.426 173.492 54.84 173.492 52.75 175.559 52.75 178.164 52.75 180.77 54.84 182.836 57.426 182.836 60.027 182.836 62.098 180.77 62.098 178.164M51.527 178.164C51.527 174.906 54.168 172.266 57.426 172.266 60.699 172.266 63.324 174.906 63.324 178.164 63.324 181.418 60.699 184.062 57.426 184.062 54.168 184.062 51.527 181.418 51.527 178.164" fill="#ffffff"/>
<path d="M76.016 180.059 73.867 173.875 71.707 180.059ZM76.418 181.227H71.305L70.363 183.91H69.023L73.18 172.418H74.543L78.695 183.91H77.355ZM76.418 181.227" fill="#ffffff"/>
<path d="M80.035 180.137V172.418H81.262V179.945C81.262 181.609 82.566 182.836 84.344 182.836 86.129 182.836 87.449 181.609 87.449 179.945V172.418H88.672V180.137C88.672 182.398 86.855 184.062 84.344 184.062 81.855 184.062 80.035 182.398 80.035 180.137" fill="#ffffff"/>
<path d="M90.57 181.727 91.68 181.074C92.082 182.129 93.02 182.836 94.324 182.836 95.605 182.836 96.621 182.145 96.621 180.922 96.621 178.066 91.027 178.988 91.027 175.289 91.027 173.414 92.465 172.266 94.227 172.266 95.551 172.266 96.66 172.895 97.293 173.699L96.332 174.504C95.875 173.855 95.148 173.488 94.266 173.488 93.191 173.488 92.254 174.047 92.254 175.195 92.254 177.934 97.848 176.977 97.848 180.883 97.848 182.895 96.254 184.062 94.301 184.062 92.602 184.062 91.164 183.141 90.57 181.727" fill="#ffffff"/>
<path d="M106.156 173.645H102.98V183.91H101.754V173.645H98.574V172.418H106.156ZM106.156 173.645" fill="#ffffff"/>
<path d="M111.77 177.551C112.938 177.551 113.816 176.766 113.816 175.598 113.816 174.449 112.918 173.645 111.77 173.645H108.953V177.551ZM115.773 183.906H114.371L111.117 178.719H108.953V183.906H107.727V172.418H111.844C113.609 172.418 115.043 173.836 115.043 175.637 115.043 177.188 113.895 178.449 112.383 178.66ZM115.773 183.906" fill="#ffffff"/>
<path d="M122.934 180.059 120.789 173.875 118.625 180.059ZM123.336 181.227H118.223L117.285 183.91H115.945L120.102 172.418H121.461L125.617 183.91H124.273ZM123.336 181.227" fill="#ffffff"/>
<path d="M132.508 182.684V183.906H127.016V172.418H128.238V182.684ZM132.508 182.684" fill="#ffffff"/>
<path d="M141.816 182.684C144.363 182.684 146.355 180.75 146.355 178.164 146.355 175.574 144.363 173.645 141.816 173.645H139.902V182.684ZM138.695 172.418H141.836C144.996 172.418 147.582 174.984 147.582 178.164 147.582 181.34 144.996 183.906 141.836 183.906H138.695ZM138.695 172.418" fill="#ffffff"/>
<path d="M151.238 173.605V177.57H155.645V178.758H151.238V182.719H156.297V183.91H150.016V172.418H156.297V173.605ZM151.238 173.605" fill="#ffffff"/>
<path d="M8.781 192.742H5.965V201.688H3.055V192.742H.238V190.195H8.781ZM8.781 192.742" fill="#ffffff"/>
<path d="M12.688 192.742V194.68H16.23V197.207H12.688V199.141H16.883V201.688H9.758V190.195H16.883V192.742ZM12.688 192.742" fill="#ffffff"/>
<path d="M18.184 195.941C18.184 192.688 20.809 190.043 24.082 190.043 26.359 190.043 28.355 191.344 29.328 193.262L26.801 194.543C26.305 193.547 25.309 192.918 24.082 192.918 22.34 192.918 21.039 194.199 21.039 195.941 21.039 197.684 22.34 198.969 24.082 198.969 25.309 198.969 26.305 198.336 26.801 197.34L29.328 198.625C28.355 200.539 26.359 201.84 24.082 201.84 20.809 201.84 18.184 199.199 18.184 195.941" fill="#ffffff"/>
<path d="M42.027 190.195V201.688H38.941L33.773 194.641V201.688H30.844V190.195H33.906L39.098 197.227V190.195ZM42.027 190.195" fill="#ffffff"/>
<path d="M52.656 195.941C52.656 194.199 51.352 192.918 49.629 192.918 47.887 192.918 46.586 194.199 46.586 195.941 46.586 197.684 47.887 198.969 49.629 198.969 51.352 198.969 52.656 197.684 52.656 195.941M43.73 195.941C43.73 192.688 46.355 190.043 49.629 190.043 52.887 190.043 55.527 192.688 55.527 195.941 55.527 199.199 52.887 201.84 49.629 201.84 46.355 201.84 43.73 199.199 43.73 195.941" fill="#ffffff"/>
<path d="M63.801 199.141V201.688H57.215V190.195H60.145V199.141ZM63.801 199.141" fill="#ffffff"/>
<path d="M73.375 195.941C73.375 194.199 72.074 192.918 70.352 192.918 68.609 192.918 67.305 194.199 67.305 195.941 67.305 197.684 68.609 198.969 70.352 198.969 72.074 198.969 73.375 197.684 73.375 195.941M64.453 195.941C64.453 192.688 67.078 190.043 70.352 190.043 73.605 190.043 76.25 192.688 76.25 195.941 76.25 199.199 73.605 201.84 70.352 201.84 67.078 201.84 64.453 199.199 64.453 195.941" fill="#ffffff"/>
<path d="M89.332 195.309V195.941C89.332 199.199 86.688 201.84 83.43 201.84 80.156 201.84 77.531 199.199 77.531 195.941 77.531 192.688 80.156 190.043 83.43 190.043 85.711 190.043 87.703 191.344 88.676 193.262L86.152 194.543C85.652 193.547 84.656 192.918 83.43 192.918 81.688 192.918 80.387 194.199 80.387 195.941 80.387 197.684 81.688 198.969 83.43 198.969 84.559 198.969 85.5 198.41 86.035 197.551H83.41V195.309ZM89.332 195.309" fill="#ffffff"/>
<path d="M93.16 186.367H95.746L93.332 189.238H91.473ZM91.113 190.195H94.039V201.688H91.113ZM91.113 190.195" fill="#ffffff"/>
<path d="M101.91 197.301 100.629 193.242 99.363 197.301ZM102.637 199.676H98.617L97.984 201.688H94.824L98.98 190.195H102.258L106.41 201.688H103.27ZM102.637 199.676" fill="#ffffff"/>
<path d="M126.5 195.234V195.863C126.5 199.121 123.859 201.766 120.605 201.766 117.328 201.766 114.703 199.121 114.703 195.863 114.703 192.609 117.328 189.965 120.605 189.965 122.883 189.965 124.875 191.27 125.852 193.184L123.324 194.469C122.824 193.473 121.832 192.84 120.605 192.84 118.859 192.84 117.559 194.121 117.559 195.863 117.559 197.605 118.859 198.891 120.605 198.891 121.734 198.891 122.672 198.336 123.211 197.473H120.586V195.234ZM126.5 195.234" fill="#ffffff"/>
<path d="M131.211 192.668V194.602H134.758V197.129H131.211V199.062H135.406V201.609H128.285V190.121H135.406V192.668ZM131.211 192.668" fill="#ffffff"/>
<path d="M148.297 190.121V201.613H145.211L140.043 194.562V201.613H137.113V190.121H140.176L145.367 197.148V190.121ZM148.297 190.121" fill="#ffffff"/>
<path d="M156.492 186.289H159.078L156.664 189.164H154.809ZM158.926 195.863C158.926 194.121 157.621 192.84 155.898 192.84 154.156 192.84 152.855 194.121 152.855 195.863 152.855 197.605 154.156 198.891 155.898 198.891 157.621 198.891 158.926 197.605 158.926 195.863M150 195.863C150 192.609 152.625 189.965 155.898 189.965 159.156 189.965 161.797 192.609 161.797 195.863 161.797 199.121 159.156 201.766 155.898 201.766 152.625 201.766 150 199.121 150 195.863" fill="#ffffff"/>
<path d="M176.621 190.121V201.613H173.691V195.465L170.836 201.613H169.266L166.414 195.426V201.613H163.48V190.121H166.66L170.051 197.434 173.461 190.121ZM176.621 190.121" fill="#ffffff"/>
<path d="M178.824 190.121H181.754V201.60901H178.824Z" fill="#ffffff"/>
<path d="M183.535 195.863C183.535 192.609 186.156 189.965 189.434 189.965 191.711 189.965 193.703 191.27 194.68 193.184L192.152 194.465C191.652 193.469 190.656 192.84 189.434 192.84 187.691 192.84 186.387 194.121 186.387 195.863 186.387 197.605 187.691 198.891 189.434 198.891 190.656 198.891 191.652 198.258 192.152 197.266L194.68 198.547C193.703 200.461 191.711 201.766 189.434 201.766 186.156 201.766 183.535 199.121 183.535 195.863" fill="#ffffff"/>
<path d="M201.574 197.223 200.289 193.164 199.027 197.223ZM202.301 199.602H198.281L197.648 201.609H194.488L198.645 190.121H201.918L206.074 201.609H202.934ZM202.301 199.602" fill="#ffffff"/>
<path d="M114.828 67.977H104.828V0H129.852V67.977H119.895" fill="#ee273f"/>
<path d="M141.402 91.711H129.316V33.988H159.562V91.711H147.527" fill="#1889c6"/>
<path d="M160.766 62.852H145.988V5.129H182.965V62.852H168.254" fill="#0aa55b"/>
<path d="M187.121 136.156H174.508V33.988H206.074V136.156H193.512" fill="#f8a216"/>
<path d="M58.023 124.777 52.527 141.012H63.457ZM68.633 156.922 66.5 150.715H49.488L47.355 156.922H34.742L50.977 113.781H65.012L81.246 156.922ZM68.633 156.922" fill="#ffffff"/>
<path d="M90.559 156.922V123.484H78.465V113.781H113.715V123.484H101.684V156.922ZM90.559 156.922" fill="#ffffff"/>
<path d="M115.914 135.383C115.914 121.672 126.391 113.07 139.262 113.07 148.898 113.07 154.723 118.18 157.695 123.547L148.383 128.398C146.766 125.555 143.469 122.902 139.262 122.902 132.215 122.902 127.234 128.27 127.234 135.383 127.234 142.434 132.215 147.867 139.262 147.867 144.051 147.867 147.348 145.152 148.836 141.852H137.516V132.086H161.059C161.059 148.383 152.266 157.699 138.227 157.699 126.391 157.699 115.914 149.098 115.914 135.383" fill="#ffffff"/>
<path d="M0 141.52C0 132.461 7.297 125.109 16.41 125.109 22.754 125.109 28.297 128.73 31.012 134.062L23.98 137.629C22.594 134.859 19.824 133.102 16.41 133.102 11.562 133.102 7.938 136.672 7.938 141.52 7.938 146.371 11.562 149.941 16.41 149.941 19.824 149.941 22.594 148.18 23.98 145.41L31.012 148.98C28.297 154.309 22.754 157.934 16.41 157.934 7.297 157.934 0 150.578 0 141.52" fill="#ffffff"/>
</g>
</svg>
